<?xml version="1.0" encoding="iso-8859-1"?>
<!-- Uploaded to: SVG Repo, www.svgrepo.com, Generator: SVG Repo Mixer Tools -->
<!DOCTYPE svg PUBLIC "-//W3C//DTD SVG 1.1//EN" "http://www.w3.org/Graphics/SVG/1.1/DTD/svg11.dtd">
<svg fill="#ffffff" version="1.1" id="Capa_1" xmlns="http://www.w3.org/2000/svg" xmlns:xlink="http://www.w3.org/1999/xlink" 
	 width="800px" height="800px" viewBox="0 0 31.836 31.836"
	 xml:space="preserve">
<g>
	<g>
		<path d="M22.016,14.929l-0.938-0.53c-0.644,0.268-1.373,0.475-2.209,0.593c-0.515,0.572-1.362,0.94-2.345,0.94
			c-1.164,0-2.145-0.514-2.597-1.27c-0.661-0.167-1.291-0.419-1.874-0.74l-1.699,1.07c-2.78,1.908-6.606,6.445-7.57,16.844h5.52
			c0.143-1.744,0.409-3.271,0.956-4.57v4.57h13.454v-5.062c0.383,1.429,0.672,3.108,0.832,5.062h5.508
			C28.172,21.064,24.842,16.873,22.016,14.929z M16.306,28.845c-2.521,0-4.574-2.051-4.574-4.573c0-2.521,2.053-4.574,4.574-4.574
			s4.573,2.054,4.573,4.574C20.879,26.794,18.826,28.845,16.306,28.845z"/>
		<path d="M16.306,20.314c-2.182,0-3.958,1.774-3.958,3.957s1.774,3.957,3.958,3.957c2.182,0,3.958-1.772,3.958-3.957
			C20.264,22.09,18.488,20.314,16.306,20.314z M18.086,26.793l-0.502,0.262c-0.088,0.047-0.207,0.062-0.322,0.041
			c-1.658-0.182-2.489-2.208-2.511-2.246c-0.543-1.06-0.568-2.197-0.141-2.914c0.053-0.104,0.135-0.197,0.221-0.242l0.506-0.252
			c0.194-0.1,0.433-0.021,0.532,0.176l0.269,1.049c0.049,0.244-0.002,0.445-0.236,0.564l-0.237,0.115
			c-0.13,0.066-0.161,0.047-0.25,0.039c-0.231-0.01-0.289,0.151-0.27,0.266c0.051,0.285,0.136,0.568,0.276,0.844
			c0.003,0.006,0.423,0.81,0.756,1.168c0.08,0.083,0.247,0.127,0.374-0.066c0.048-0.076,0.048-0.111,0.179-0.179l0.231-0.124
			c0.232-0.119,0.426-0.047,0.596,0.134l0.695,0.832C18.354,26.453,18.279,26.691,18.086,26.793z"/>
		<path d="M13.688,13.362c0.204-1.085,1.375-1.894,2.835-1.894c1.028,0,1.909,0.403,2.414,1.021c0.638-0.127,1.179-0.331,1.64-0.58
			c1.357-1.255,2.207-3.049,2.207-5.043C22.783,3.072,19.711,0,15.919,0c-3.796,0-6.868,3.073-6.868,6.866
			C9.05,9.878,10.988,12.437,13.688,13.362z"/>
		<path d="M23.397,7.254c-0.062,0.893-0.317,1.821-0.772,2.893c0.184,0,0.359-0.006,0.528-0.015
			c-0.653,1.27-1.947,2.677-4.503,3.043c-0.303-0.636-1.143-1.092-2.128-1.092c-1.244,0-2.251,0.725-2.251,1.616
			c0,0.892,1.007,1.615,2.251,1.615c0.88,0,1.64-0.364,2.011-0.891c3.79-0.442,5.38-2.792,6.043-4.532
			c0.288-0.088,0.539-0.2,0.756-0.328c1.072-0.627,1.354-1.677,1.354-2.699c0-1.537-0.53-3.162-3.469-3.387
			C22.987,3.46,22.745,3.45,22.487,3.45C23.18,4.845,23.481,6.019,23.397,7.254z"/>
	</g>
</g>
</svg>