<?xml version="1.0" encoding="utf-8"?><!-- Uploaded to: SVG Repo, www.svgrepo.com, Generator: SVG Repo Mixer Tools -->
<svg fill="#ffffff" width="800px" height="800px" viewBox="-8 0 46 46" xmlns="http://www.w3.org/2000/svg">
  <path id="_32.ID-Vertical" data-name="32.ID-Vertical" d="M35,47H13a4,4,0,0,1-4-4V13a4,4,0,0,1,4-4h7V5a4,4,0,0,1,8,0V9h7a4,4,0,0,1,4,4V43A4,4,0,0,1,35,47ZM26,5a2,2,0,0,0-4,0v6a2,2,0,0,0,4,0Zm11,8a2,2,0,0,0-2-2H28a4,4,0,0,1-8,0H13a2,2,0,0,0-2,2V37h3.8a10.841,10.841,0,0,1,1.16-2.24c.025-.014.848-1.739,5-1.79.006-.021.01-1.042.022-1.027a7.286,7.286,0,0,1-1.051-.816,4.187,4.187,0,0,1-1.452-2.583,39.458,39.458,0,0,1-.488-4.166c0-3.171,1.265-6.381,5.953-6.381h.121c4.688,0,5.953,3.21,5.953,6.381a39.458,39.458,0,0,1-.488,4.166,4.182,4.182,0,0,1-1.452,2.583,7.11,7.11,0,0,1-1.051.816c.013-.015.018,1.007.022,1.027,4.151.051,4.974,1.776,5,1.79A10.84,10.84,0,0,1,33.2,37H37ZM25.014,31.488v0S25,30.711,25,30.711a11.219,11.219,0,0,0,2.031-1.378,3.029,3.029,0,0,0,.741-1.362,33.627,33.627,0,0,0,.238-3.7c0-2.062-1.033-4.28-4.007-4.28v0c-2.974,0-4.007,2.219-4.007,4.28a34.125,34.125,0,0,0,.238,3.7,3.029,3.029,0,0,0,.741,1.362A11.219,11.219,0,0,0,23,30.711s-.014.781-.018.781v0s.029,1.146.029,1.486a2.186,2.186,0,0,1-2.223,2.019h0c-2.593.114-3.2.976-3.21.984A4.882,4.882,0,0,0,17,37H31a4.783,4.783,0,0,0-.582-1.022c-.006-.009-.619-.87-3.211-.984h0a2.186,2.186,0,0,1-2.224-2.019C24.984,32.634,25.014,31.488,25.014,31.488ZM37,39H11v4a2,2,0,0,0,2,2H35a2,2,0,0,0,2-2Zm-6,4H28a1,1,0,0,1,0-2h3a1,1,0,0,1,0,2Zm-8,0H17a1,1,0,0,1,0-2h6a1,1,0,0,1,0,2ZM23,5h2V7H23Z" transform="translate(-9 -1)" fill-rule="evenodd"/>
</svg>