<?xml version="1.0" encoding="utf-8"?>
<!-- Generator: Adobe Illustrator 27.7.0, SVG Export Plug-In . SVG Version: 6.00 Build 0)  -->
<svg version="1.1" id="layer" xmlns="http://www.w3.org/2000/svg" xmlns:xlink="http://www.w3.org/1999/xlink" x="0px" y="0px"
	 viewBox="0 0 300 120" style="enable-background:new 0 0 300 120;" xml:space="preserve">
<style type="text/css">
	.st0{fill:#762B8A;}
	.st1{fill:url(#Path_00000126322961954916547590000018011997683782075839_);}
	.st2{fill:#3F454F;}
</style>
<path id="Shape" class="st0" d="M148.3,61.5l-25.4-14.6V17.5l25.4-14.6l25.4,14.6v29.3L148.3,61.5z M169.6,44.5V19.9L148.3,7.6
	L127,19.9v24.5l21.3,12.3L169.6,44.5z"/>
<linearGradient id="Path_00000048478763943223589400000017420946639449807243_" gradientUnits="userSpaceOnUse" x1="-1838.2085" y1="524.7007" x2="-1838.2085" y2="523.219" gradientTransform="matrix(23.2105 0 0 -26.7996 42814.0156 14074.1035)">
	<stop  offset="0.2" style="stop-color:#C6168D"/>
	<stop  offset="0.8" style="stop-color:#762B8A"/>
</linearGradient>
<polygon id="Path" style="fill:url(#Path_00000048478763943223589400000017420946639449807243_);" points="152.3,45.7 152.3,41.7 
	165.5,34 165.5,29.9 152.3,37.5 152.3,33.4 165.5,25.8 165.5,22.3 148.3,12.3 131.1,22.3 131.1,42.2 148.3,52.1 165.5,42.2 
	165.5,38 "/>
<path class="st2" d="M58.3,93.4H32.6v-24h24.9v5.2H38.3v3.6h13.3v5.3H38.3v4.5h20V93.4z M66,69.4v24h5.7V75.6l14.5,17.8h7.6v-24H88
	v17.8L73.5,69.4H66z M100.5,69.4v5.3h10.8v18.8h5.7V74.6h10.8v-5.3H100.5z M238.3,69.4v5.3h10.8v18.8h5.7V74.6h10.8v-5.3H238.3z
	 M153.6,69.4c2.6,0,4.6,0.7,6.2,2.1c1.6,1.4,2.3,3.3,2.3,5.7c0,3.8-1.7,6.2-5.2,7.3l0,0l6.4,8.8h-6.6l-6-8.3h-10.3v8.3h-5.7v-24
	H153.6L153.6,69.4z M140.3,74.6v5.1h12.3c3.4,0,3.7-1.2,3.7-2.6c0-1.6-1-2.6-3.6-2.6H140.3L140.3,74.6z M184.5,88.8
	c7.4,0,8.1-2.6,8.1-4.7V69.4h5.7v15.9c0,5.7-6.1,8.8-13.8,8.8l0,0c-7.8,0-13.8-3.1-13.8-8.8V69.4h5.7V84
	C176.3,86.2,177,88.8,184.5,88.8L184.5,88.8z M228.9,76.4l3.6-3.8c-4.8-3.9-10.9-3.7-12.6-3.9c-1.7-0.1-13-0.3-13.6,7.4
	c-0.3,5.2,4.6,6.9,12.6,7.1c8,0.2,8.3,1.6,8.3,2.5c0,0.9-1,3.1-8.2,3c-4.6-0.1-8.6-1.7-10.8-3.6l-3.2,4.2c3.8,3,8.5,4.5,14.5,4.5
	c7.2,0,13.4-1.9,13.6-7.8c0.4-6.9-6.6-7.7-13-8.2c-6.1-0.5-8.1-0.7-8.1-2.1c0-1.7,4.6-1.9,7.9-1.7C224.1,74.1,226.9,75.1,228.9,76.4
	z"/>
</svg>
