<?xml version="1.0" encoding="utf-8"?>
<!-- Generator: Adobe Illustrator 27.7.0, SVG Export Plug-In . SVG Version: 6.00 Build 0)  -->
<svg version="1.1" id="layer" xmlns="http://www.w3.org/2000/svg" xmlns:xlink="http://www.w3.org/1999/xlink" x="0px" y="0px"
	 viewBox="0 0 300 120" style="enable-background:new 0 0 300 120;" xml:space="preserve">
<style type="text/css">
	.st0{fill:#762B8A;}
	.st1{fill:url(#Path_00000057116626402530522390000015778077409112698023_);}
	.st2{fill:#3F454F;}
</style>
<path id="Shape" class="st0" d="M149,73.1l-30.7-17.7V19.9L149,2.2l30.7,17.7v35.4L149,73.1z M174.8,52.5V22.8L149,7.9l-25.8,14.9
	v29.7L149,67.4L174.8,52.5z"/>
<linearGradient id="Path_00000024681169562102313050000013904143080048415667_" gradientUnits="userSpaceOnUse" x1="-1064.0314" y1="58.4743" x2="-1064.0314" y2="60.2673" gradientTransform="matrix(23.2105 0 0 26.7996 24845.7188 -1553.4564)">
	<stop  offset="0.2" style="stop-color:#C6168D"/>
	<stop  offset="0.8" style="stop-color:#762B8A"/>
</linearGradient>
<polygon id="Path" style="fill:url(#Path_00000024681169562102313050000013904143080048415667_);" points="153.9,54 153.9,49.1 
	169.8,39.8 169.8,34.8 153.9,44 153.9,39.1 169.8,29.9 169.8,25.7 149,13.6 128.2,25.7 128.2,49.7 149,61.7 169.8,49.7 169.8,44.7 
	"/>
<path class="st2" d="M40.1,111.7H9v-29h30.1V89H15.9v4.4H32v6.4H15.9v5.5h24.2C40.1,105.3,40.1,111.7,40.1,111.7z M49.4,82.6v29h6.9
	V90.2l17.5,21.5H83v-29h-6.9v21.5L58.5,82.6H49.4z M91.2,82.6V89h13.1v22.7h6.9V89h13.1v-6.4H91.2z M257.9,82.6V89H271v22.7h6.9V89
	H291v-6.4H257.9z M155.5,82.6c3.1,0,5.6,0.8,7.5,2.6c1.9,1.7,2.8,4,2.8,6.9c0,4.6-2.1,7.5-6.3,8.8l0,0l7.7,10.7h-8l-7.2-10.1h-12.5
	v10.1h-6.9v-29H155.5L155.5,82.6z M139.4,89v6.2h14.9c4.1,0,4.5-1.5,4.5-3.1c0-1.9-1.2-3.1-4.3-3.1H139.4L139.4,89z M192.8,106.1
	c9,0,9.8-3.1,9.8-5.7V82.6h6.9v19.2c0,6.9-7.4,10.6-16.7,10.6l0,0c-9.4,0-16.7-3.8-16.7-10.6V82.6h6.9v17.7
	C182.9,103,183.8,106.1,192.8,106.1L192.8,106.1z M246.6,91.1l4.3-4.6c-5.8-4.7-13.2-4.5-15.3-4.7c-2-0.1-15.7-0.4-16.4,8.9
	c-0.4,6.3,5.6,8.4,15.3,8.6c9.7,0.2,10.1,1.9,10.1,3c0,1.1-1.2,3.7-9.9,3.6c-5.6-0.1-10.4-2.1-13.1-4.3l-3.9,5.1
	c4.6,3.6,10.3,5.4,17.6,5.4c8.7,0,16.2-2.3,16.5-9.4c0.5-8.3-8-9.3-15.7-9.9c-7.4-0.6-9.8-0.8-9.8-2.6c0-2,5.6-2.3,9.5-2.1
	C240.7,88.4,244.1,89.6,246.6,91.1z"/>
</svg>
