<svg id="Layer_1" data-name="Layer 1" xmlns="http://www.w3.org/2000/svg" viewBox="0 0 265.49 108.4"><defs><style>.cls-1{fill:#dc0014;}</style></defs><title>Artboard 76</title><g id="l8X2W8.tif"><path d="M133.92,34.06c1.49.28,3,.51,4.47.84a24,24,0,0,1,11.9,5.94,17.2,17.2,0,0,1-.53,25.27,27.34,27.34,0,0,1-15.35,6.58,10.85,10.85,0,0,0-3.17.39h-1.65a7.59,7.59,0,0,0-2.65-.39,28.64,28.64,0,0,1-4-.79,39.5,39.5,0,0,0,6.33-.46C133.88,70.57,138,68.75,141,65a13.1,13.1,0,0,0-3.56-19.63,23.64,23.64,0,0,0-14.84-3.16A21.43,21.43,0,0,0,112,45.85a13.55,13.55,0,0,0-5.72,8c0,.18,0,.42-.25.57a16.4,16.4,0,0,1,5.57-13.71c3.93-3.59,8.69-5.39,13.86-6.27a4.9,4.9,0,0,0,2-.41Z"/><path class="cls-1" d="M26.15,55.94c.37-.17.25-.54.29-.82.89-6.41,4.64-10.39,10.69-12.14S49,41.31,54.61,44.18s7.54,8.2,7.48,13.47c0,.69-.43.56-.82.56H53.62c-6.23,0-12.46,0-18.68,0-1.05,0-1.08.37-.94,1.18a9.79,9.79,0,0,0,8.23,7.52c5.17.83,9.63-.43,13-4.65a1,1,0,0,1,1.38-.31c1.59.73,3.2,1.43,4.83,2.07.73.28.67.53.25,1.06a18.91,18.91,0,0,1-11.11,6.64c-5.6,1.22-11.09,1-16.28-1.68a13.75,13.75,0,0,1-7.83-10.59c0-.27.09-.65-.3-.8Zm18.26-2.25c3.1,0,6.19,0,9.29,0,.63,0,.76-.14.55-.74a7.87,7.87,0,0,0-4.57-4.89,13,13,0,0,0-10.8.27,8.36,8.36,0,0,0-4.27,4.43c-.3.71-.22.94.62.93C38.29,53.67,41.35,53.69,44.41,53.69Z"/><path class="cls-1" d="M237.56,64c-.15,0-.2.15-.23.3-.67,3.15-2.83,4.93-5.64,6.06a25.41,25.41,0,0,1-9.51,1.57c-3.86,0-7.71-.13-11.33-1.71a39.53,39.53,0,0,1-4.64-2.46c-.45-.27-.55-.48-.27-1q1.12-1.91,2.13-3.88c.28-.54.52-.55,1-.25a26.35,26.35,0,0,0,15.12,3.59,13.69,13.69,0,0,0,4.34-.78,5,5,0,0,0,2.14-1.38,2.47,2.47,0,0,0-.93-4.07,7.91,7.91,0,0,0-3-.58c-3-.07-5.91-.11-8.87-.19a14.84,14.84,0,0,1-6.65-1.63,7.48,7.48,0,0,1-4.35-7.06c0-3.29,1.8-5.45,4.69-6.8a19.7,19.7,0,0,1,6.79-1.61,30.5,30.5,0,0,1,16.58,3.26c.55.28.56.5.27,1-.7,1.18-1.38,2.38-2,3.6-.31.62-.62.62-1.2.35a28.06,28.06,0,0,0-13-2.7,12.13,12.13,0,0,0-3.64.62,4.37,4.37,0,0,0-1.76,1,2,2,0,0,0,.36,3.25,7.3,7.3,0,0,0,3.45.92c3.5.27,7,0,10.51.37a15.13,15.13,0,0,1,5,1.29,7.48,7.48,0,0,1,4.44,5.46c0,.18,0,.43.25.5Z"/><path d="M124.92,66.2A16.73,16.73,0,0,1,116,63.75a7.94,7.94,0,0,1,.14-13.7,16.66,16.66,0,0,1,10.08-2.26,16.44,16.44,0,0,1,6.72,1.73c6.09,3.16,6.49,10.44.77,14.24A16.34,16.34,0,0,1,124.92,66.2Z"/><path class="cls-1" d="M84.78,65.25l7.4-13.89c1.37-2.58,2.75-5.15,4.11-7.73a1,1,0,0,1,1-.67c2.06,0,4.13,0,6.18,0,.16.34-.09.55-.21.78Q96.22,57,89.19,70.2a1.21,1.21,0,0,1-1.26.78q-3.15-.06-6.29,0a1.13,1.13,0,0,1-1.18-.73q-6.87-13.2-13.79-26.37c-.4-.77-.32-1,.57-.93,1.68.06,3.37,0,5.06,0a1.19,1.19,0,0,1,1.25.78Q78.85,54,84.21,64.18Z"/><path class="cls-1" d="M161.35,56.87c0-4.33,0-8.67,0-13,0-.73.19-.94.92-.91a42.13,42.13,0,0,0,4.44,0c1-.07,1.1.31,1.09,1.16,0,6.67,0,13.35,0,20,0,.94.26,1.11,1.14,1.11,5.13,0,10.25,0,15.38,0,1,0,1.2.3,1.15,1.2-.07,1.27,0,2.55,0,3.82,0,.55-.11.78-.73.78q-11.3,0-22.6,0c-.77,0-.7-.41-.7-.91Q161.35,63.47,161.35,56.87Z"/><path class="cls-1" d="M198.33,57c0,4.33,0,8.66,0,13,0,.76-.16,1-1,1-1.37-.07-2.75-.07-4.12,0-.81,0-1-.2-1-1,0-6.63,0-13.27,0-19.9,0-2.1,0-4.19,0-6.29,0-.63.18-.83.81-.81,1.48,0,3,0,4.43,0,.68,0,.86.18.86.86C198.31,48.21,198.33,52.62,198.33,57Z"/></g></svg>