<?xml version="1.0" encoding="utf-8"?>
<!-- Generator: Adobe Illustrator 27.7.0, SVG Export Plug-In . SVG Version: 6.00 Build 0)  -->
<svg version="1.1" id="layer" xmlns="http://www.w3.org/2000/svg" xmlns:xlink="http://www.w3.org/1999/xlink" x="0px" y="0px"
	 viewBox="0 0 300 120" style="enable-background:new 0 0 300 120;" xml:space="preserve">
<style type="text/css">
	.st0{fill:#DC0014;}
</style>
<g id="l8X2W8.tif">
	<path d="M152.8,29.5c2.1,0.4,4.2,0.7,6.2,1.2c6.2,1.1,12,4,16.6,8.3c9.5,9.2,9.8,24.4,0.6,33.9c-0.4,0.5-0.9,0.9-1.4,1.3
		c-6,5.2-13.5,8.4-21.4,9.2c-1.5,0-3,0.1-4.4,0.5h-2.3c-1.2-0.4-2.4-0.6-3.7-0.5c-1.9-0.2-3.7-0.6-5.6-1.1c3,0,5.9-0.2,8.8-0.6
		c6.4-1.2,12.2-3.8,16.4-9c6.4-7.8,5.2-19.3-2.6-25.7c-0.8-0.6-1.6-1.2-2.4-1.7c-6.2-3.7-13.5-5.3-20.7-4.4
		c-5.3,0.4-10.4,2.1-14.8,5.1c-4,2.6-6.8,6.6-8,11.2c0,0.3,0,0.6-0.3,0.8c-0.6-7.2,2.3-14.3,7.8-19.1c5.5-5,12.1-7.5,19.3-8.7
		c1,0,1.9-0.2,2.8-0.6L152.8,29.5z"/>
	<path class="st0" d="M2.6,60c0.5-0.2,0.3-0.8,0.4-1.1c1.2-8.9,6.5-14.5,14.9-16.9s16.6-2.3,24.4,1.7S52.8,55,52.7,62.4
		c0,1-0.6,0.8-1.1,0.8H40.9c-8.7,0-17.4,0-26,0c-1.5,0-1.5,0.5-1.3,1.6c1.3,5.5,5.8,9.7,11.5,10.5c7.2,1.2,13.4-0.6,18.1-6.5
		c0.4-0.7,1.3-0.8,1.9-0.4c0,0,0,0,0,0c2.2,1,4.5,2,6.7,2.9c1,0.4,0.9,0.7,0.3,1.5c-3.9,4.8-9.4,8.1-15.5,9.3
		c-7.8,1.7-15.5,1.4-22.7-2.3C8,76.9,3.9,71.3,3,64.9c0-0.4,0.1-0.9-0.4-1.1L2.6,60z M28,56.8c4.3,0,8.6,0,13,0c0.9,0,1.1-0.2,0.8-1
		c-1-3.1-3.3-5.6-6.4-6.8c-4.8-2.1-10.3-1.9-15.1,0.4c-2.7,1.2-4.8,3.4-6,6.2c-0.4,1-0.3,1.3,0.9,1.3C19.5,56.8,23.8,56.8,28,56.8z"
		/>
	<path class="st0" d="M297.4,71.2c-0.2,0-0.3,0.2-0.3,0.4c-0.9,4.4-3.9,6.9-7.9,8.5c-4.2,1.6-8.7,2.3-13.3,2.2
		c-5.4,0-10.8-0.2-15.8-2.4c-2.2-1-4.4-2.1-6.5-3.4c-0.6-0.4-0.8-0.7-0.4-1.4c1-1.8,2-3.6,3-5.4c0.4-0.8,0.7-0.8,1.4-0.3
		c6.4,3.8,13.7,5.5,21.1,5c2.1,0,4.1-0.4,6.1-1.1c1.1-0.4,2.2-1,3-1.9c1.3-1.3,1.3-3.5,0-4.9c-0.4-0.4-0.8-0.6-1.3-0.8
		c-1.3-0.5-2.7-0.8-4.2-0.8c-4.2-0.1-8.2-0.2-12.4-0.3c-3.2,0-6.4-0.8-9.3-2.3c-3.8-1.8-6.2-5.6-6.1-9.8c0-4.6,2.5-7.6,6.5-9.5
		c3-1.3,6.2-2.1,9.5-2.2c8-0.7,16,0.9,23.1,4.5c0.8,0.4,0.8,0.7,0.4,1.4c-1,1.6-1.9,3.3-2.8,5c-0.4,0.9-0.9,0.9-1.7,0.5
		c-5.7-2.7-11.9-4-18.1-3.8c-1.7,0-3.4,0.3-5.1,0.9c-0.9,0.3-1.8,0.7-2.5,1.4c-1.2,1-1.3,2.8-0.2,3.9c0.2,0.2,0.5,0.4,0.7,0.6
		c1.5,0.8,3.1,1.3,4.8,1.3c4.9,0.4,9.8,0,14.7,0.5c2.4,0.2,4.8,0.8,7,1.8c3.2,1.3,5.5,4.2,6.2,7.6c0,0.3,0,0.6,0.3,0.7L297.4,71.2z"
		/>
	<path d="M140.3,74.3c-4.4,0.1-8.7-1.1-12.4-3.4c-5.2-3.1-6.9-9.9-3.8-15.2c1-1.6,2.4-3,4-3.9c4.2-2.5,9.2-3.6,14.1-3.2
		c3.3,0.1,6.5,1,9.4,2.4c8.5,4.4,9,14.6,1.1,19.9C148.9,73.2,144.6,74.3,140.3,74.3z"/>
	<path class="st0" d="M84.3,73l10.3-19.4c1.9-3.6,3.8-7.2,5.7-10.8c0.2-0.6,0.8-1,1.4-0.9c2.9,0,5.8,0,8.6,0
		c0.2,0.5-0.1,0.8-0.3,1.1C103.5,55.3,97,67.6,90.5,79.9c-0.3,0.7-1,1.2-1.8,1.1c-2.9-0.1-5.9-0.1-8.8,0c-0.7,0.1-1.4-0.3-1.6-1
		c-6.4-12.3-12.8-24.5-19.2-36.8c-0.6-1.1-0.4-1.4,0.8-1.3c2.3,0.1,4.7,0,7.1,0c0.8-0.1,1.5,0.4,1.7,1.1c4.9,9.5,9.9,19.1,14.9,28.5
		L84.3,73z"/>
	<path class="st0" d="M191.1,61.3c0-6,0-12.1,0-18.1c0-1,0.3-1.3,1.3-1.3c2.1,0.1,4.1,0.1,6.2,0c1.4-0.1,1.5,0.4,1.5,1.6
		c0,9.3,0,18.6,0,27.9c0,1.3,0.4,1.5,1.6,1.5c7.2,0,14.3,0,21.4,0c1.4,0,1.7,0.4,1.6,1.7c-0.1,1.8,0,3.6,0,5.3c0,0.8-0.2,1.1-1,1.1
		c-10.5,0-21,0-31.5,0c-1.1,0-1-0.6-1-1.3C191.1,73.6,191.1,67.4,191.1,61.3z"/>
	<path class="st0" d="M242.7,61.5c0,6,0,12.1,0,18.1c0,1.1-0.2,1.4-1.4,1.4c-1.9-0.1-3.8-0.1-5.7,0c-1.1,0-1.4-0.3-1.4-1.4
		c0-9.2,0-18.5,0-27.7c0-2.9,0-5.8,0-8.8c0-0.9,0.3-1.2,1.1-1.1c2.1,0,4.2,0,6.2,0c0.9,0,1.2,0.3,1.2,1.2
		C242.6,49.2,242.7,55.3,242.7,61.5z"/>
</g>
</svg>
