<?xml version="1.0" encoding="utf-8"?>
<!-- Generator: Adobe Illustrator 19.2.1, SVG Export Plug-In . SVG Version: 6.00 Build 0)  -->
<svg version="1.1" id="layer" xmlns="http://www.w3.org/2000/svg" xmlns:xlink="http://www.w3.org/1999/xlink" x="0px" y="0px"
	 viewBox="0 0 652 652" style="enable-background:new 0 0 652 652;" xml:space="preserve">
<style type="text/css">
	.st0{fill:#00539B;}
	.st1{fill:#FFFFFF;}
</style>
<g>
	<path d="M601.2,216.4c0-4.9,3.7-8.6,8.5-8.6c4.7,0,8.4,3.6,8.4,8.6c0,5-3.7,8.6-8.4,8.6C604.9,225.1,601.2,221.4,601.2,216.4
		 M609.7,226.9c5.7,0,10.5-4.4,10.5-10.4c0-6-4.8-10.3-10.5-10.3c-5.7,0-10.6,4.4-10.6,10.3C599.1,222.4,604,226.9,609.7,226.9
		 M607.5,217.3h2.1l3.2,5.2h2l-3.4-5.3c1.7-0.2,3.1-1.2,3.1-3.3c0-2.3-1.4-3.4-4.2-3.4h-4.6v12h1.9V217.3z M607.5,215.7V212h2.5
		c1.3,0,2.6,0.2,2.6,1.7c0,1.8-1.3,1.9-2.9,1.9H607.5z"/>
	<path class="st0" d="M565,439.3c14.6,0,26.4-11.8,26.4-26.5V230.4c0-14.6-11.9-26.4-26.4-26.4H46.6c-14.6,0-26.4,11.9-26.4,26.4
		v182.5c0,14.6,11.9,26.5,26.4,26.5H565z"/>
	<rect x="273.7" y="261.2" class="st1" width="60.7" height="120.8"/>
	<polygon class="st1" points="180.3,330.5 180.3,382 241.1,382 241.1,261.2 180.3,261.2 180.3,312.7 139.5,312.7 139.5,261.2 
		78.8,261.2 78.8,382 139.5,382 139.5,330.5 	"/>
	<path class="st1" d="M464.9,261.2h-99.3v121.3h99.3c34.9,0,66.3-26.3,66.4-60.7C531.3,287.6,499.8,261.2,464.9,261.2 M425.7,371.2
		V272c22.1,0,39.4-4,39.4,49.7C465.1,375.3,450.7,371.2,425.7,371.2"/>
</g>
</svg>
