<?xml version="1.0" encoding="utf-8"?>
<!-- Generator: Adobe Illustrator 27.7.0, SVG Export Plug-In . SVG Version: 6.00 Build 0)  -->
<svg version="1.1" id="Layer_1" xmlns="http://www.w3.org/2000/svg" xmlns:xlink="http://www.w3.org/1999/xlink" x="0px" y="0px"
	 viewBox="0 0 310.1 300" style="enable-background:new 0 0 310.1 300;" xml:space="preserve">
<style type="text/css">
	.st0{fill:#866B3E;}
	.st1{fill:#FEFEFE;}
	.st2{fill:#FCFBF9;}
	.st3{fill:#FDFDFC;}
	.st4{fill:#E5DCD4;}
	.st5{fill:#EDE1E4;}
	.st6{fill:#C1B9AF;}
	.st7{fill:#ACA189;}
	.st8{fill:#8D7D51;}
	.st9{fill:#D1C8BF;}
	.st10{fill:#F9F3F3;}
	.st11{fill:#183378;}
	.st12{fill:#866D40;}
	.st13{fill:#866D41;}
	.st14{fill:#866C3F;}
	.st15{fill:#876D42;}
	.st16{fill:#BAC1C9;}
	.st17{fill:#2B407C;}
	.st18{fill:#838AAB;}
	.st19{fill:#FFFFFF;}
	.st20{fill:#FFFFFE;}
	.st21{fill:#6F789E;}
	.st22{fill:#465688;}
	.st23{fill:#CCD0DA;}
	.st24{fill:#E6E7E3;}
	.st25{fill:#8F9AB4;}
</style>
<g>
	<path class="st0" d="M154.6,299.9c-46.6,0-93.3,0-139.9,0c-7.8,0-12.5-3.2-14.2-9.7c-0.2-0.9-0.3-1.8-0.3-2.7
		C0,196.6,0.1,105.8,0,15C0,6.4,3.6,2.3,9.8,0.5c1.5-0.5,3.3-0.4,4.9-0.4c93.6,0,187.3,0,280.9-0.1c7.5,0,14.5,5.2,14.5,14.3
		c-0.2,90.4-0.2,180.9,0,271.3c0,8.1-6.5,14.4-14.2,14.3c-40.9-0.2-81.7-0.1-122.6-0.1C167.1,299.9,160.8,299.9,154.6,299.9z
		 M113.7,272.5c0.3,0.1,0.6,0.1,0.9,0.2c0.9,0,1.9,0,2.8,0c0.2-0.2,0.4-0.4,0.6-0.6c0-3.2-0.1-6.4,0.2-9.5c0.2-2.4,0.9-4.8,4.1-4.6
		c2.9,0.1,3.1,2.3,3.1,4.5c0,3.4,0,6.7,0,10.1c2,0,3.4,0,4.8,0c0.2-0.2,0.3-0.3,0.5-0.5c0.1-3.6,0.3-7.3,0.1-10.9
		c-0.2-4.5-2.2-7.2-5.5-7.4c-3.9-0.2-7.7-0.1-11.9-0.1c0,6.2,0,12,0,17.7c0,0.1-0.1,0.2-0.1,0.3c0.1,0.2,0.2,0.4,0.3,0.6
		L113.7,272.5z M17.7,27.8c0,0-0.2-0.1-0.2-0.1c-0.1,0.1-0.2,0.2-0.2,0.2c0,0.2,0.1,0.3,0.2,0.5c0,5.4,0.1,10.8,0.1,16.2
		c0,24.6-0.1,49.2-0.1,73.8c-0.1,0.1-0.2,0.2-0.2,0.2c0.1,0.2,0.2,0.3,0.3,0.5c0.7,5.4,4.3,8.4,9.1,9.9c4.4,1.4,8.8,2.5,13.5,3.9
		c0,12.4,0,24.8,0,37.2c-0.1,0.1-0.2,0.2-0.2,0.3c0.1,0.2,0.2,0.4,0.3,0.5c0.5,1.5,0.8,3.1,1.6,4.5c3,5.3,7.7,6.8,13.5,6.8
		c66.7-0.1,133.4,0,200-0.1c1.1,0,2.1-0.1,3.2-0.2c0.7-0.2,1.4-0.3,2.2-0.5c6-1.8,9-6,10.1-11.9c0-0.3,0.1-0.6,0.1-1
		c0-11.7,0-23.5,0-35.2c0.1-0.3,0.1-0.6,0.2-0.9c4.1-1.2,8.2-2.4,12.4-3.5c5.5-1.5,9.5-6.2,9.5-12c0-28.9,0.1-57.8,0-86.7
		c0-7.3-5.4-12.5-12.7-12.5c-83.3,0-166.7,0-250,0c-6.9,0-10.3,2.6-12.6,9.2C17.7,27.3,17.7,27.6,17.7,27.8z M156.6,269.3
		c0,0.2,0,0.5,0,0.7c0,0.7,0,1.4,0.1,2.1c0.2,0.2,0.3,0.3,0.5,0.5c1.2,0,2.3,0,3.5,0.1c0.2-0.2,0.4-0.4,0.6-0.6c0-2,0.1-4,0.1-6
		c0-6,0.7-6.9,6.2-7.9c0-1.5,0-3,0-5.1c-2,0.8-3.5,1.5-5.1,2c-0.3,0.1-0.8-0.4-1.2-0.7c-0.2-0.2-0.4-0.3-0.6-0.5c-0.9,0-1.9,0-2.8,0
		c-0.4,0.4-0.9,0.8-1.3,1.2c0,3.5,0,7.1,0,10.6c0,0.2,0,0.5,0,0.7C156.6,267.5,156.6,268.4,156.6,269.3z M92,209.3
		c-0.2,0.2-0.4,0.4-0.6,0.6c0,8.3,0,16.5,0,24.8c0.2,0.2,0.3,0.4,0.5,0.5c1.2,0,2.4,0,3.5,0c0.2-0.1,0.5-0.1,0.7-0.2
		c0.2-4.5,0.4-9.1,0.5-13.6c0.1-4.1,0-8.1,0-12.2C94.7,209.3,93.3,209.3,92,209.3z M118.7,209.9c-0.2-0.2-0.4-0.5-0.5-0.7
		c-1.6,0-3.2,0-5.1,0c0,3,0,5.6,0,8.4c-8.5-3.1-12.8,0.1-12.6,8.9c0,0.7,0,1.4,0.1,2.1c0.4,5.6,5.6,8.6,10.6,6.3
		c0.6-0.3,1.4-0.3,2.1-0.3c1.7,0.2,3.4,0.5,5.5,0.9C118.7,226.6,118.7,218.2,118.7,209.9z M86.3,272.7c1.5,0,3,0,4.8,0
		c0-2.9,0-5.4,0-8c0.1-5.8,3.4-8.1,9.3-6.1c0,2.4,0,4.9,0,7.4c0.1,6.2,3.3,8.4,9.1,6.4c0-1,0-2.1,0-3.1c-6.6-2.2-2-7.4-3.8-11.1
		c3,0.2,4.4-0.7,3.6-3.4c-2.7-0.5-2.7-0.5-3.8-5.1c-1.6,0-3.2,0-4.9,0c-0.8,1.9,0.9,5.3-3.4,4.8c-1.9-0.2-3.8,0.6-5.8,0.8
		c-0.4,0-0.8-0.5-1.2-0.8c-0.2-0.2-0.4-0.3-0.6-0.5c-1.3,0-2.5,0-4,0c0,6,0,11.7,0,17.5C86,271.9,86.2,272.3,86.3,272.7z
		 M59.4,225.8c-1.2,2-1.7,3.9-3,4.9c-1.9,1.4-4.2,1.8-6.4,0c-3.2-2.6-4.6-8.4-2.8-12.5c2.5-6,6.8-6.4,11.2-1.5
		c0.9,1,3.4,0.5,5.2,0.7c0-1.2,0.4-2.7-0.2-3.7c-2.5-4.8-7.1-5.3-11.7-5.2c-4.4,0.1-9,3.8-9.9,8c-0.6,2.6-1,5.3-0.7,8
		c0.7,8.7,8,14.6,16,10.2c0.6-0.3,1.5-0.5,2.2-0.4c1.5,0.3,3,0.9,4.9,1.5c0-5.3,0-9.8,0-14.4c-3.8,0-7.4,0-10.9,0
		C51.9,226.7,56,225.1,59.4,225.8z M48.5,263.7c1.2,0,2.5,0.1,3.8,0c1.3-0.1,2.5-0.4,3.7-0.7c3.2-0.6,6-3.7,6.1-7.5
		c0.1-2.9-0.2-6.6-3.9-7.4c-4.9-1-10-1.4-15.2-2.1c-0.2,1.9-0.4,2.9-0.4,4c0,7.5,0,15,0,22.9c1.8-0.1,4.2,0.1,4.4-0.3
		C47.8,269.9,48,267,48.5,263.7z M77.9,216.2c-7-0.4-9.4,4.3-9.9,9.7c-0.5,4.8,4.4,10.4,9.7,10.2c5.6-0.2,10.1-4.5,9.8-10.4
		C87,218.6,83,216.1,77.9,216.2z M75.7,260.7c-1.7,0.3-3.3,0.6-4.9,0.9c-3.1,0.5-6.1,1.6-6.9,4.9c-0.4,1.5,0.5,3.9,1.7,4.9
		c2.3,2.1,5,3.2,8.2,1.1c0.8-0.5,2.4,0.2,3.6,0.2c1.7,0.1,3.9,1,3.9-1.9c0-3.8-0.4-7.7-0.5-11.5c-0.1-3.1-2.1-5.3-5.2-5.6
		c-1.6-0.1-3.3-0.1-5,0c-3.6,0.1-5.4,2.3-5.1,6.9c1.8-1,3.5-1.6,5-2.7C72.6,256.4,75.1,257.3,75.7,260.7z M152.4,266.5
		c-2.5,0.9-4.4,1.6-6.4,2.2c-1.3,0.4-3,1-3.9,0.5c-1.4-0.9-2.1-2.6-3.2-4c0.3-0.3,0.6-0.6,0.9-0.9c4.3,0,8.6,0,12.9,0
		c-0.3-6.5-3.2-10.1-7.7-10.6c-8.1-0.8-10.1,3.6-11.2,8.9c-0.9,4.1,3.3,9.9,7.5,10.8C145.6,274.5,150.6,271.8,152.4,266.5z"/>
	<path class="st1" d="M17.4,118.5c0-24.6,0.1-49.2,0.1-73.8c0-5.4-0.1-10.8-0.1-16.2c0-0.2,0-0.5,0-0.7c0,0,0.2,0.1,0.2,0.1
		c0.1-0.1,0.2-0.2,0.2-0.2c0-0.2-0.1-0.3-0.2-0.5c2.3-6.7,5.7-9.2,12.6-9.2c83.3,0,166.7,0,250,0c7.3,0,12.7,5.2,12.7,12.5
		c0.1,28.9,0.1,57.8,0,86.7c0,5.8-3.9,10.5-9.5,12c-4.1,1.1-8.2,2.3-12.4,3.5c-0.1,0.3-0.1,0.6-0.2,0.9c0,11.7,0,23.5,0,35.2
		c0,0.3-0.1,0.6-0.1,1c-1.1,5.9-4.1,10.2-10.1,11.9c-0.7,0.2-1.4,0.3-2.2,0.5c-1.1,0.1-2.1,0.2-3.2,0.2c-66.7,0-133.4,0-200,0.1
		c-5.8,0-10.6-1.6-13.5-6.8c-0.8-1.4-1.1-3-1.6-4.5c0-0.3-0.1-0.5-0.1-0.8c0-12.4,0-24.7,0-37.2c-4.7-1.3-9.1-2.5-13.5-3.9
		c-4.8-1.6-8.4-4.5-9.1-9.9C17.4,118.9,17.4,118.7,17.4,118.5z M181.1,68.9l0.1-0.1c0.3,0.2,0.5,0.3,0.8,0.5c1.4,0,2.7,0,4.1,0
		c0.2-0.6,0.4-1.3,0.7-1.9c0-5.9,0-11.7,0-17.6c0.1-0.9,0.2-1.9,0.3-2.8c1.4,0,2.8-0.1,4.2-0.1c4.4,0,4.8-0.5,3.7-4.9
		c-7.6,0-15.2,0-22.7,0c-0.4,4.8-0.4,4.8,4.1,4.9c1.4,0,2.8,0.1,4.2,0.1c0.2,0.2,0.4,0.4,0.6,0.6c0,6.8,0,13.7,0,20.5
		c-0.1,0.1-0.2,0.2-0.2,0.2C180.9,68.6,181,68.7,181.1,68.9z M255.4,67.5c0.5,0.7,0.9,1.9,1.4,1.9c5.9,0.1,11.7,0.1,17.7,0.1
		c0-1.8,0-3.1,0-4.8c-3.7,0-7.2-0.1-10.7,0c-2.7,0.1-3.6-1-3.3-3.5c0.1-0.9,0.1-1.8,0.2-2.9c2.9,0,5.6,0,8.3,0c4.5,0,4.5,0,4-5
		c-3.2,0-6.5-0.1-9.8,0c-2,0.1-2.8-0.7-2.7-2.7c0.1-1.1,0-2.3,0-3.4c4.7-0.3,9-0.5,13.5-0.8c-0.1-2-0.1-3.2-0.2-4.4
		c-6.3,0-12.3,0-18.3,0c-0.1,0.5-0.1,1-0.2,1.4c0,0.5,0,0.9,0,1.4c-0.1,0.1-0.2,0.2-0.2,0.2c0,0.2,0.2,0.4,0.2,0.5
		c0,7.1,0,14.1,0,21.2c-0.1,0.1-0.2,0.2-0.2,0.2C255.2,67.1,255.3,67.3,255.4,67.5z M150.2,51.2c0.4-0.5,0.8-0.9,1.2-1.4
		c2.4,5.1,4.8,10.3,7.2,15.4c2.3,4.8,4.7,5.7,9.9,3.6c0.1-0.2,0.2-0.5,0.2-0.7c0-8.3,0-16.5,0-24.8c0.1-0.1,0.2-0.2,0.2-0.2
		c0-0.2-0.1-0.4-0.2-0.5c-1.7-0.2-3.5-0.5-5.2-0.7c-0.1,0.3-0.2,0.5-0.3,0.8c0.1,5.9,0.1,11.7,0.2,17.6c-0.1,0.1-0.2,0.2-0.2,0.2
		c0,0.2,0.1,0.4,0.2,0.5c-0.1,0.4-0.3,0.8-0.4,1.2c-0.5-0.5-1.1-1-1.4-1.6c-2.6-5.5-5.1-11-7.7-16.5c-0.4-0.9-1.5-2-2.3-2.1
		c-2.1-0.3-4.4-0.1-6.4-0.1c0,9.5,0,18.5,0,27.5c4.9,0.2,4.9,0.2,4.9-4.2C150.2,60.6,150.2,55.9,150.2,51.2z M258.5,90
		c-0.3-0.1-0.6-0.2-0.9-0.3c-1.3,0-2.6-0.1-3.9-0.1c-50.5,0-101,0-151.5,0c-16.4,0-32.8,0-49.2,0.1c-0.3,0.1-0.6,0.1-0.9,0.2
		c-3.5,0.4-5.2,2.5-5.7,5.8c-0.2,1-0.5,2-0.5,3c0,22.6,0,45.1,0,67.7c0,1,0.3,2,0.5,3c0.3,3.6,2.4,5.6,5.9,6.2c0.2,0,0.5,0,0.7,0
		c1.1,0,2.1,0.1,3.2,0.1c66,0,132,0,198.1,0c0.9,0,1.9-0.1,2.8-0.1c0.7-0.2,1.5-0.4,2.2-0.5c3.9-1.2,5.2-4.1,5.2-8
		c0-23.1,0-46.2,0-69.3C264.4,93.6,262.8,91.6,258.5,90z M243.4,59.1c0.7,3-0.8,4.5-3.1,5.7c-2.5,1.3-4.7,1.4-6.9-0.7
		c-3.6-3.5-4.5-10.7-1.6-14.8c2.4-3.4,7.9-4.4,9.9-1.4c1.8,2.8,3.9,2.9,7.1,2.2c-0.4-1.6-0.5-3.3-1.3-4.5c-3.3-5-13.3-5.9-18-2
		c-5,4.2-5.8,9.8-4.9,15.6c0.8,5.2,3.5,9.8,9.1,10.6c3.3,0.5,6.9-1,9.9-1.5c1.5,0.5,3,1,4.7,1.6c0-5.5,0-10.3,0-15
		c-3.8,0-7.3,0-10.8,0C236.8,58.9,236.7,58.9,243.4,59.1z M64.4,42c0,9.4,0,18.4,0,27.6c3.7,0,7.1,0.5,10.4-0.1
		c7.6-1.3,11.2-3.4,12.8-11c1.7-7.9-3.4-15.8-10.7-16.4C72.9,41.7,68.7,42,64.4,42z M60.3,69.2C57.5,61,54.6,52.9,52,44.8
		c-1.1-3.4-3.5-2.6-5.8-2.9c-2.6-0.4-3.6,1.1-4.3,3.1c-2.7,7.9-5.4,15.7-8,23.6c3,1.8,5.7,1.6,6-0.6c0.5-4.8,3.6-5,7.2-4.7
		c1.1,0.1,2.2-0.3,3.2,0.1c1.1,0.4,2.8,1.3,2.9,2.2C53.8,69.5,56.3,70.2,60.3,69.2z M222.6,69.1c-3-8.6-5.9-17.2-8.9-25.8
		c-0.2-0.6-1.1-1.2-1.8-1.4c-4.9-1.1-6.6,0-8.1,4.9c-0.2,0.6-0.5,1.1-0.7,1.6c-2.3,6.7-4.7,13.4-7,20.2c4.1,1.7,5.1,1.2,6.5-2.4
		c0.5-1.2,1.6-2.9,2.6-3c3.2-0.4,6.5-0.1,9.7-0.1C216.2,69.5,217,70.1,222.6,69.1z M122.1,63.3c10.9-0.5,10.9-0.5,13.5,6
		c1.7,0,3.4,0,5.6,0c-3-8.7-6-17.1-8.9-25.4c-1.1-3.1-3.6-1.6-5.6-2c-1.9-0.3-3,0.3-3.7,2.2c-2.7,8.2-5.6,16.3-8.4,24.4
		C119.3,70.7,120.7,69.7,122.1,63.3z M89.8,42.3c2.5,8.1,4.9,16,7.2,24c0.7,2.6,2.1,3.4,4.7,3.3c2.7,0,4-1,4.6-3.6
		c0.5-2.4,1.4-4.6,2.2-6.9c1.8-5.7,3.5-11.3,5.3-17.2c-2.2,0-3.9,0-5.8,0c-1.9,6.6-3.9,13.1-6,20.1c-0.6-1.1-1.2-1.7-1.4-2.4
		c-1.4-4.5-3.1-9-3.9-13.6C95.9,41.8,93.7,41.2,89.8,42.3z"/>
	<path class="st2" d="M59.4,225.8c-3.5-0.6-7.6,0.9-6.3-4.4c3.5,0,7.1,0,10.9,0c0,4.6,0,9.1,0,14.4c-1.9-0.6-3.4-1.2-4.9-1.5
		c-0.7-0.1-1.6,0-2.2,0.4c-8,4.4-15.3-1.5-16-10.2c-0.2-2.6,0.2-5.4,0.7-8c0.9-4.2,5.5-7.9,9.9-8c4.6-0.1,9.2,0.4,11.7,5.2
		c0.5,1,0.1,2.5,0.2,3.7c-1.8-0.2-4.3,0.3-5.2-0.7c-4.4-4.9-8.6-4.5-11.2,1.5c-1.7,4.1-0.4,9.8,2.8,12.5c2.2,1.8,4.6,1.4,6.4,0
		C57.7,229.7,58.3,227.7,59.4,225.8z"/>
	<path class="st3" d="M90.4,254.5c0.4,0.3,0.8,0.8,1.2,0.8c1.9-0.2,3.9-1,5.8-0.8c4.2,0.5,2.6-2.9,3.4-4.8c1.6,0,3.3,0,4.9,0
		c1.1,4.5,1.1,4.5,3.8,5.1c0.8,2.7-0.6,3.5-3.6,3.4c1.8,3.8-2.8,9,3.8,11.1c0,1,0,2,0,3.1c-5.8,2-9-0.2-9.1-6.4c0-2.5,0-4.9,0-7.4
		c-5.9-2-9.3,0.3-9.3,6.1c0,2.6,0,5.2,0,8c-1.8,0-3.3,0-4.8,0c-0.2-0.4-0.4-0.8-0.6-1.2c0-5.7,0-11.5,0-17.5c1.5,0,2.8,0,4,0
		C90,254.2,90.2,254.3,90.4,254.5z"/>
	<path class="st2" d="M118.7,209.9c0,8.3,0,16.6,0,25.6c-2.1-0.3-3.8-0.7-5.5-0.9c-0.7-0.1-1.5,0-2.1,0.3
		c-5.1,2.3-10.2-0.7-10.6-6.3c-0.1-0.7-0.1-1.4-0.1-2.1c-0.1-8.8,4.1-12,12.6-8.9c0-2.7,0-5.4,0-8.4c1.9,0,3.5,0,5.1,0
		C118.3,209.5,118.5,209.7,118.7,209.9z M113.2,225.6c-0.1-2,0.5-5-3.5-5.1c-2.7-0.1-4.4,2.1-4.3,5.6c0.1,2.6,1,5,3.7,5.6
		C111.7,232.1,113.2,229.7,113.2,225.6z"/>
	<path class="st3" d="M48.5,263.7c-0.5,3.3-0.8,6.2-1.5,8.9c-0.1,0.4-2.5,0.2-4.4,0.3c0-7.9,0-15.4,0-22.9c0-1,0.2-2.1,0.4-4
		c5.2,0.7,10.3,1,15.2,2.1c3.7,0.8,3.9,4.4,3.9,7.4c-0.1,3.8-3,6.9-6.1,7.5c-1.2,0.2-2.5,0.6-3.7,0.7
		C51,263.8,49.7,263.7,48.5,263.7z M48,250.7c0,2.3-0.3,3.9,0.1,5.3c0.3,1.2,1.1,3.1,1.9,3.3c2.6,0.5,5.2-0.4,6.3-3.1
		c0.8-1.9,0.2-3.9-2-4.5C52.4,251.1,50.4,251.1,48,250.7z"/>
	<path class="st2" d="M77.9,216.2c5.1-0.2,9.2,2.4,9.5,9.5c0.3,5.9-4.2,10.2-9.8,10.4c-5.3,0.2-10.1-5.4-9.7-10.2
		C68.5,220.5,70.9,215.8,77.9,216.2z M82,225.8c0-3.2-1.7-5.4-4.2-5.3c-2.7,0-4.3,2.1-4.4,5.6c0,3,2.2,5.9,4.4,5.8
		C80.2,231.7,82.1,229,82,225.8z"/>
	<path class="st2" d="M75.7,260.7c-0.6-3.4-3-4.3-5.2-2.7c-1.4,1-3.1,1.7-5,2.7c-0.3-4.6,1.5-6.8,5.1-6.9c1.6-0.1,3.3-0.1,5,0
		c3.1,0.3,5.1,2.5,5.2,5.6c0.2,3.8,0.5,7.7,0.5,11.5c0,2.9-2.2,2-3.9,1.9c-1.2-0.1-2.8-0.8-3.6-0.2c-3.2,2.1-6,1-8.2-1.1
		c-1.2-1.1-2-3.5-1.7-4.9c0.8-3.3,3.8-4.4,6.9-4.9C72.4,261.3,73.9,261,75.7,260.7z M75.4,264.5c-2.5,0.1-5.3-0.5-6,2.7
		c-0.1,0.5,1.5,2.1,2.3,2.1C74.5,269.3,76.2,268,75.4,264.5z"/>
	<path class="st2" d="M152.4,266.5c-1.8,5.3-6.7,8-11,7c-4.2-1-8.4-6.7-7.5-10.8c1.1-5.3,3.1-9.7,11.2-8.9c4.5,0.4,7.4,4.1,7.7,10.6
		c-4.3,0-8.6,0-12.9,0c-0.3,0.3-0.6,0.6-0.9,0.9c1,1.4,1.8,3.2,3.2,4c0.9,0.5,2.6-0.1,3.9-0.5C147.9,268.2,149.8,267.4,152.4,266.5z
		 M139.5,261.4c2.2,0,4.4,0.1,6.5-0.1c0.2,0,0.6-2.3,0.1-2.9C144.5,256.3,141.7,257.2,139.5,261.4z"/>
	<path class="st3" d="M113.4,271.5c0-5.7,0-11.5,0-17.7c4.1,0,8-0.2,11.9,0.1c3.3,0.2,5.3,2.9,5.5,7.4c0.1,3.6-0.1,7.3-0.1,10.9
		c-0.2,0.2-0.3,0.3-0.5,0.5c-1.4,0-2.8,0-4.8,0c0-3.4,0-6.7,0-10.1c0-2.3-0.2-4.4-3.1-4.5c-3.2-0.2-3.9,2.2-4.1,4.6
		c-0.3,3.2-0.1,6.3-0.2,9.5c-0.2,0.2-0.4,0.4-0.6,0.6c-0.9,0-1.9,0-2.8,0c-0.3-0.1-0.6-0.1-0.9-0.2c0,0-0.1-0.2-0.1-0.2
		C113.5,272.1,113.5,271.8,113.4,271.5z"/>
	<path class="st1" d="M95.5,235.2c-1.2,0-2.4,0-3.5,0c-0.2-0.2-0.3-0.4-0.5-0.5c0-8.3,0-16.5,0-24.8c0.2-0.2,0.4-0.4,0.6-0.6
		c1.4,0,2.8,0,4.7,0c0,4.1,0.1,8.2,0,12.2c-0.1,4.5-0.3,9.1-0.5,13.6C95.9,235.1,95.7,235.2,95.5,235.2z"/>
	<path class="st3" d="M160.6,272.7c-1.2,0-2.3,0-3.5-0.1c-0.2-0.2-0.3-0.3-0.5-0.5c0-0.7,0-1.4-0.1-2.1c0.1-0.1,0.2-0.2,0.2-0.2
		c0-0.2-0.1-0.4-0.2-0.5c0-0.9,0-1.9,0-2.8c0.1-0.1,0.2-0.2,0.2-0.2c0-0.2-0.1-0.4-0.2-0.5c0-3.5,0-7.1,0-10.6
		c0.4-0.4,0.9-0.8,1.3-1.2c0.9,0,1.9,0,2.8,0c0.2,0.2,0.4,0.3,0.6,0.5c0.4,0.2,0.9,0.8,1.2,0.7c1.6-0.5,3.1-1.2,5.1-2
		c0,2.2,0,3.7,0,5.1c-5.5,1-6.2,1.9-6.2,7.9c0,2-0.1,4-0.1,6C161.1,272.4,160.9,272.6,160.6,272.7z"/>
	<path class="st4" d="M157.9,254c-0.4,0.4-0.9,0.8-1.3,1.2C157,254.8,157.4,254.4,157.9,254z"/>
	<path class="st5" d="M258.4,182c0.7-0.2,1.4-0.3,2.2-0.5C259.9,181.7,259.2,181.8,258.4,182z"/>
	<path class="st4" d="M85.8,271.5c0.2,0.4,0.4,0.8,0.6,1.2C86.2,272.3,86,271.9,85.8,271.5z"/>
	<path class="st5" d="M95.5,235.2c0.2-0.1,0.5-0.1,0.7-0.2C95.9,235.1,95.7,235.2,95.5,235.2z"/>
	<path class="st6" d="M270.7,169.6c0-0.3,0.1-0.6,0.1-1C270.8,169,270.8,169.3,270.7,169.6z"/>
	<path class="st7" d="M40,170.1c0,0.3,0.1,0.5,0.1,0.8c-0.1-0.2-0.2-0.4-0.3-0.5C39.8,170.3,40,170.2,40,170.1z"/>
	<path class="st5" d="M92,209.3c-0.2,0.2-0.4,0.4-0.6,0.6C91.6,209.7,91.8,209.5,92,209.3z"/>
	<path class="st8" d="M17.5,27.7c0,0.2,0,0.5,0,0.7c-0.1-0.2-0.2-0.3-0.2-0.5C17.2,27.9,17.4,27.8,17.5,27.7z"/>
	<path class="st9" d="M118.7,209.9c-0.2-0.2-0.4-0.5-0.5-0.7C118.3,209.5,118.5,209.7,118.7,209.9z"/>
	<path class="st6" d="M270.9,133.4c0.1-0.3,0.1-0.6,0.2-0.9C271,132.9,271,133.1,270.9,133.4z"/>
	<path class="st8" d="M17.4,118.5c0,0.2,0,0.5,0,0.7c-0.1-0.2-0.2-0.3-0.3-0.5C17.2,118.6,17.4,118.5,17.4,118.5z"/>
	<path class="st5" d="M91.4,234.6c0.2,0.2,0.3,0.4,0.5,0.5C91.8,235,91.6,234.8,91.4,234.6z"/>
	<path class="st4" d="M160.6,272.7c0.2-0.2,0.4-0.4,0.6-0.6C161.1,272.4,160.9,272.6,160.6,272.7z"/>
	<path class="st4" d="M90.4,254.5c-0.2-0.2-0.4-0.3-0.6-0.5C90,254.2,90.2,254.3,90.4,254.5z"/>
	<path class="st4" d="M161.2,254.5c-0.2-0.2-0.4-0.3-0.6-0.5C160.8,254.2,161,254.3,161.2,254.5z"/>
	<path class="st10" d="M17.7,27.1c0.1,0.2,0.2,0.3,0.2,0.5c0,0.1-0.1,0.1-0.2,0.2C17.7,27.6,17.7,27.3,17.7,27.1z"/>
	<path class="st4" d="M156.6,265.8c0.1,0.2,0.2,0.3,0.2,0.5c0,0.1-0.1,0.1-0.2,0.2C156.6,266.3,156.6,266.1,156.6,265.8z"/>
	<path class="st4" d="M156.6,269.3c0.1,0.2,0.2,0.3,0.2,0.5c0,0.1-0.1,0.1-0.2,0.2C156.6,269.8,156.6,269.6,156.6,269.3z"/>
	<path class="st4" d="M113.4,271.5c0.1,0.3,0.1,0.6,0.2,0.9c-0.1-0.2-0.2-0.4-0.3-0.6C113.3,271.7,113.4,271.6,113.4,271.5z"/>
	<path class="st4" d="M113.7,272.5c0.3,0.1,0.6,0.1,0.9,0.2C114.3,272.7,114,272.6,113.7,272.5z"/>
	<path class="st4" d="M117.4,272.8c0.2-0.2,0.4-0.4,0.6-0.6C117.9,272.4,117.6,272.6,117.4,272.8z"/>
	<path class="st4" d="M130.2,272.7c0.2-0.2,0.3-0.3,0.5-0.5C130.5,272.3,130.3,272.5,130.2,272.7z"/>
	<path class="st4" d="M156.6,272.2c0.2,0.2,0.3,0.3,0.5,0.5C157,272.5,156.8,272.3,156.6,272.2z"/>
	<path class="st11" d="M46.4,95.8c0.5-3.3,2.2-5.4,5.7-5.8c0.3-0.1,0.6-0.1,0.9-0.2c16.4,0,32.8-0.1,49.2-0.1c50.5,0,101,0,151.5,0
		c1.3,0,2.6,0,3.9,0.1c0.3,0.1,0.6,0.2,0.9,0.3c4.3,1.5,5.9,3.5,5.9,7.9c0,23.1,0,46.2,0,69.3c0,3.9-1.3,6.7-5.2,8
		c-0.7,0.2-1.5,0.4-2.2,0.5c-0.9,0-1.9,0.1-2.8,0.1c-66,0-132,0-198.1,0c-1.1,0-2.1-0.1-3.2-0.1c-0.2,0-0.5,0-0.7,0
		c-3.5-0.6-5.6-2.6-5.9-6.2c0.1-6.2,0.2-12.5,0.2-18.7C46.6,132.5,46.5,114.1,46.4,95.8z M180.5,156.9l-0.1-0.3
		c13.2,0,26.5,0,39.7,0c0.2,0,0.5,0,0.7,0c3.7-1.4,7.7-2.3,11.2-4.2c8.9-4.9,12.6-12.9,11.4-22.8c-1-8.3-5.8-14.2-13.5-17.5
		c-2.7-1.2-5.6-1.9-8.4-2.9c-0.5-0.1-1-0.2-1.6-0.2c-13.6,0-27.2,0-41.2,0c0,1.9,0,3.6,0,5.2c-0.2,1.3-0.4,2.5-0.4,3.8
		c0,9.7,0,19.4,0,29c0,1.4,0.3,2.8,0.4,4.1c0.1,1.6,0.2,3.3,0.2,4.9c0,0.2,0,0.5,0,0.7C179.6,156.8,180.1,156.8,180.5,156.9z
		 M166.8,153.7c0-14.8,0-29.6,0-44.6c-8.2,0-16,0-23.9,0c0,15.9,0,31.5,0,47.4c7.5,0,14.7,0,22,0c0.3,0,0.5,0,0.8,0
		c0.4-0.6,0.8-1.2,1.1-1.8C166.8,154.4,166.8,154.1,166.8,153.7z M128.8,156.5c0.4-0.4,0.8-0.8,1.3-1.2c0-15.1,0-30.2,0-45.3
		c-0.2-0.3-0.3-0.6-0.5-0.8c-7.3-0.1-14.6-0.2-21.9-0.2c-0.6,0-1.1,0.6-1.7,1c0,0.5,0,1,0,1.4c0,4.2,0,8.5,0,12.7c0,0.7,0,1.4,0,2.1
		c0,0.7,0,1.4,0,2.1c-0.2,0.2-0.4,0.4-0.6,0.6c-5,0-10,0-15.4,0c0-6.2,0-13,0-19.8c-8.1,0-15.8,0-23.9,0c0,2.2,0,4.2,0,6.2
		c0.1,13.6,0.2,27.1,0.2,40.7c0.3,0.2,0.5,0.3,0.8,0.5c7.3,0,14.6,0,21.9,0c0.3-0.2,0.5-0.3,0.8-0.5c0.1-6.3,0.2-12.7,0.3-19l0.2,0
		l0.1-0.2c5,0,9.9,0.1,14.9,0.1c0.2,0.7,0.4,1.4,0.6,2c0,4.7,0,9.4,0,14.1c0,0.7,0,1.4,0,2.1c0.1,0.2,0.2,0.5,0.3,0.7
		c0.2,0.2,0.4,0.3,0.6,0.5C114.2,156.5,121.5,156.5,128.8,156.5z"/>
	<path class="st12" d="M163.4,60.3c-0.1-5.9-0.1-11.7-0.2-17.6c0.1-0.3,0.2-0.5,0.3-0.8c1.7,0.2,3.5,0.5,5.2,0.7c0,0.2,0,0.5,0,0.7
		c0,8.3,0,16.5,0,24.8c-0.1,0.2-0.2,0.5-0.2,0.7c-5.2,2-7.5,1.2-9.9-3.6c-2.5-5.1-4.8-10.3-7.2-15.4c-0.4-0.7-0.7-1.4-1.1-2.2
		c-0.3,0.1-0.6,0.2-1,0.4c0.3,1.1,0.6,2.1,0.9,3.2c0,4.7,0,9.4,0,14.1c0,4.4,0,4.4-4.9,4.2c0-9,0-18,0-27.5c2,0,4.2-0.2,6.4,0.1
		c0.9,0.1,1.9,1.2,2.3,2.1c2.6,5.5,5.1,11,7.7,16.5c0.3,0.6,0.9,1.1,1.4,1.6c0.1-0.4,0.3-0.8,0.4-1.2
		C163.4,60.8,163.4,60.6,163.4,60.3z"/>
	<path class="st13" d="M243.4,59.1c-6.7-0.3-6.5-0.2-5.9-4.3c3.5,0,7,0,10.8,0c0,4.7,0,9.5,0,15c-1.6-0.5-3.1-1-4.7-1.6
		c-3,0.5-6.6,2-9.9,1.5c-5.6-0.8-8.3-5.4-9.1-10.6c-0.9-5.8,0-11.4,4.9-15.6c4.6-3.9,14.7-3,18,2c0.8,1.2,0.9,2.9,1.3,4.5
		c-3.2,0.6-5.3,0.5-7.1-2.2c-2-3-7.5-2-9.9,1.4c-2.9,4.1-2,11.3,1.6,14.8c2.2,2.2,4.3,2,6.9,0.7C242.6,63.6,244,62.1,243.4,59.1z"/>
	<path class="st12" d="M64.4,42c4.4,0,8.5-0.3,12.5,0.1c7.3,0.6,12.3,8.6,10.7,16.4c-1.6,7.6-5.2,9.7-12.8,11
		c-3.3,0.6-6.8,0.1-10.4,0.1C64.4,60.4,64.4,51.4,64.4,42z M69.5,64.2c9.1,1.3,11.8-1.1,11.8-9.7c0-0.2,0-0.5,0-0.7
		c0-4.9-6.1-9.1-10.6-7.2c-0.5,0.2-1.1,1-1.1,1.5C69.5,53.5,69.5,58.9,69.5,64.2z"/>
	<path class="st13" d="M60.3,69.2c-4,1-6.4,0.3-7.1-3.8c-0.1-0.9-1.8-1.7-2.9-2.2c-0.9-0.4-2.1,0-3.2-0.1c-3.6-0.3-6.6-0.2-7.2,4.7
		c-0.3,2.3-3,2.4-6,0.6c2.7-7.8,5.3-15.7,8-23.6c0.7-2,1.7-3.4,4.3-3.1c2.4,0.3,4.8-0.4,5.8,2.9C54.6,52.9,57.5,61,60.3,69.2z
		 M43,57.8c2.6,0,4.8,0,7.6,0c-1-4-2-7.8-3-11.6c-0.3,0-0.5,0.1-0.8,0.1C45.6,50,44.4,53.6,43,57.8z"/>
	<path class="st13" d="M222.6,69.1c-5.6,1-6.4,0.3-7.6-5.9c-3.2,0-6.5-0.2-9.7,0.1c-1,0.1-2.1,1.8-2.6,3c-1.4,3.5-2.5,4.1-6.5,2.4
		c2.3-6.7,4.6-13.4,7-20.2c0.2-0.6,0.5-1.1,0.7-1.6c1.5-4.9,3.2-6,8.1-4.9c0.7,0.2,1.6,0.8,1.8,1.4
		C216.7,51.9,219.6,60.5,222.6,69.1z M205.4,58.5c3.2-0.5,5.4-0.8,7.7-1.1c-1.2-3.9-2.2-7.5-3.3-11.1c-0.3,0-0.5-0.1-0.8-0.1
		C207.9,50.1,206.8,53.9,205.4,58.5z"/>
	<path class="st13" d="M122.1,63.3c-1.4,6.4-2.9,7.4-7.5,5.3c2.8-8.1,5.6-16.2,8.4-24.4c0.6-1.9,1.8-2.6,3.7-2.2
		c2,0.3,4.5-1.1,5.6,2c2.9,8.4,5.8,16.7,8.9,25.4c-2.1,0-3.8,0-5.6,0C133,62.9,133,62.9,122.1,63.3z M128.2,46.6
		c-0.3-0.1-0.7-0.2-1-0.3c-1,3.8-2,7.6-3.2,11.9c2.3,0,3.9,0.2,5.5-0.1c0.7-0.1,1.9-1.3,1.8-1.8C130.4,53.1,129.3,49.9,128.2,46.6z"
		/>
	<path class="st14" d="M255.4,66.7c0-7.1,0-14.1,0-21.2c0-0.2,0-0.5,0-0.7c0-0.5,0-0.9,0-1.4c0.1-0.5,0.1-1,0.2-1.4c6,0,12,0,18.3,0
		c0.1,1.3,0.1,2.5,0.2,4.4c-4.5,0.3-8.8,0.5-13.5,0.8c0,1.2,0.1,2.3,0,3.4c-0.1,2,0.8,2.7,2.7,2.7c3.3-0.1,6.5,0,9.8,0
		c0.5,4.9,0.5,5-4,5c-2.7,0-5.4,0-8.3,0c-0.1,1.1-0.1,2-0.2,2.9c-0.3,2.5,0.6,3.7,3.3,3.5c3.5-0.2,7,0,10.7,0c0,1.7,0,3.1,0,4.8
		c-6,0-11.9,0-17.7-0.1c-0.5,0-1-1.2-1.4-1.9C255.4,67.2,255.4,67,255.4,66.7z"/>
	<path class="st15" d="M89.8,42.3c3.9-1.1,6.1-0.5,6.9,3.8c0.8,4.6,2.5,9.1,3.9,13.6c0.2,0.7,0.8,1.3,1.4,2.4c2.1-7,4-13.6,6-20.1
		c1.9,0,3.7,0,5.8,0c-1.8,5.8-3.6,11.5-5.3,17.2c-0.7,2.3-1.7,4.6-2.2,6.9c-0.6,2.6-1.8,3.6-4.6,3.6c-2.6,0-4-0.7-4.7-3.3
		C94.7,58.4,92.2,50.5,89.8,42.3z"/>
	<path class="st14" d="M186.7,49.8c0,5.9,0,11.7,0,17.6c-0.2,0.6-0.4,1.3-0.7,1.9c-1.4,0-2.7,0-4.1,0c-0.3-0.2-0.5-0.3-0.8-0.5
		c0,0-0.1,0.1-0.1,0.1c0-0.3,0-0.5,0-0.8c0-6.8,0-13.7,0-20.5c-0.2-0.2-0.4-0.4-0.6-0.6c-1.4,0-2.8-0.1-4.2-0.1
		c-4.4,0-4.4,0-4.1-4.9c7.6,0,15.1,0,22.7,0c1.1,4.4,0.7,4.8-3.7,4.9c-1.4,0-2.8,0-4.2,0.1C186.9,47.9,186.8,48.8,186.7,49.8z"/>
	<path class="st16" d="M46.4,95.8c0.1,18.4,0.1,36.7,0.2,55.1c0,6.2-0.1,12.5-0.2,18.7c-0.2-1-0.5-2-0.5-3c0-22.6,0-45.1,0-67.7
		C45.9,97.8,46.3,96.8,46.4,95.8z"/>
	<path class="st4" d="M150.2,51.2c-0.3-1.1-0.6-2.1-0.9-3.2c0.3-0.1,0.6-0.2,1-0.4c0.4,0.7,0.7,1.4,1.1,2.2
		C150.9,50.3,150.5,50.7,150.2,51.2z"/>
	<path class="st7" d="M186.7,49.8c0.1-0.9,0.2-1.9,0.3-2.8C186.9,47.9,186.8,48.8,186.7,49.8z"/>
	<path class="st7" d="M186,69.3c0.2-0.6,0.4-1.3,0.7-1.9C186.5,68,186.3,68.7,186,69.3z"/>
	<path class="st17" d="M257,175.7c0.7-0.2,1.5-0.4,2.2-0.5C258.5,175.3,257.8,175.5,257,175.7z"/>
	<path class="st4" d="M255.6,41.9c-0.1,0.5-0.1,1-0.2,1.4C255.5,42.9,255.5,42.4,255.6,41.9z"/>
	<path class="st4" d="M168.4,68.8c0.1-0.2,0.2-0.5,0.2-0.7C168.6,68.4,168.5,68.6,168.4,68.8z"/>
	<path class="st17" d="M52.3,175.7c0.2,0,0.5,0,0.7,0C52.7,175.7,52.5,175.7,52.3,175.7z"/>
	<path class="st18" d="M258.5,90c-0.3-0.1-0.6-0.2-0.9-0.3C257.9,89.8,258.2,89.9,258.5,90z"/>
	<path class="st18" d="M53.1,89.7c-0.3,0.1-0.6,0.1-0.9,0.2C52.5,89.9,52.8,89.8,53.1,89.7z"/>
	<path class="st7" d="M181.2,68.8c0.3,0.2,0.5,0.3,0.8,0.5C181.7,69.2,181.5,69,181.2,68.8z"/>
	<path class="st4" d="M181,68.1c0,0.3,0,0.5,0,0.8c-0.1-0.2-0.2-0.3-0.3-0.5C180.8,68.3,181,68.2,181,68.1z"/>
	<path class="st4" d="M255.4,66.7c0,0.2,0,0.5,0,0.7c-0.1-0.2-0.2-0.3-0.2-0.5C255.2,66.9,255.3,66.8,255.4,66.7z"/>
	<path class="st9" d="M163.4,60.3c0,0.3,0,0.5,0,0.8c-0.1-0.2-0.2-0.4-0.2-0.5C163.2,60.5,163.3,60.4,163.4,60.3z"/>
	<path class="st4" d="M180.5,47c0.2,0.2,0.4,0.4,0.6,0.6C180.9,47.4,180.7,47.2,180.5,47z"/>
	<path class="st4" d="M255.4,44.8c0,0.2,0,0.5,0,0.7c-0.1-0.2-0.2-0.3-0.2-0.5C255.2,44.9,255.3,44.8,255.4,44.8z"/>
	<path class="st4" d="M168.7,43.4c0-0.2,0-0.5,0-0.7c0.1,0.2,0.2,0.4,0.2,0.5C168.9,43.2,168.7,43.3,168.7,43.4z"/>
	<path class="st9" d="M163.5,41.9c-0.1,0.3-0.2,0.5-0.3,0.8C163.3,42.4,163.4,42.2,163.5,41.9z"/>
	<path class="st15" d="M113.2,225.6c0,4.2-1.5,6.5-4,6.1c-2.7-0.5-3.7-3-3.7-5.6c-0.1-3.5,1.6-5.7,4.3-5.6
		C113.7,220.6,113.1,223.5,113.2,225.6z"/>
	<path class="st15" d="M48,250.7c2.4,0.4,4.4,0.5,6.3,1c2.2,0.7,2.9,2.6,2,4.5c-1.1,2.7-3.7,3.6-6.3,3.1c-0.8-0.2-1.6-2.1-1.9-3.3
		C47.8,254.5,48,253,48,250.7z"/>
	<path class="st15" d="M82,225.8c0,3.2-1.8,5.9-4.1,6c-2.2,0.1-4.4-2.8-4.4-5.8c0-3.5,1.7-5.6,4.4-5.6C80.4,220.5,82,222.6,82,225.8
		z"/>
	<path class="st15" d="M75.4,264.5c0.8,3.6-0.9,4.8-3.7,4.8c-0.8,0-2.4-1.5-2.3-2.1C70.2,263.9,72.9,264.5,75.4,264.5z"/>
	<path class="st15" d="M139.5,261.4c2.1-4.3,5-5.1,6.7-3c0.5,0.6,0,2.9-0.1,2.9C143.9,261.5,141.7,261.4,139.5,261.4z"/>
	<path class="st19" d="M130,110c0,15.1,0,30.2,0,45.3c-0.4,0.4-0.8,0.8-1.3,1.2c-7.3,0-14.6,0-21.9,0c-0.2-0.2-0.4-0.3-0.6-0.5
		c-0.1-0.2-0.2-0.5-0.3-0.7c0-0.7,0-1.4,0-2.1c0-4.7,0-9.4,0-14.1c-0.2-0.7-0.4-1.4-0.6-2c-5,0-9.9-0.1-14.9-0.1
		c-0.1-0.1-0.3-0.3-0.4-0.4c0,0.2,0,0.4,0,0.6c-0.1,6.3-0.2,12.7-0.3,19c-0.3,0.2-0.5,0.3-0.8,0.5c-7.3,0-14.6,0-21.9,0
		c-0.3-0.2-0.5-0.3-0.8-0.5c-0.1-13.6-0.2-27.1-0.2-40.7c0-2,0-4,0-6.2c8,0,15.7,0,23.9,0c0,6.8,0,13.6,0,19.8c5.4,0,10.4,0,15.4,0
		c0.2-0.2,0.4-0.4,0.6-0.6c0-0.7,0-1.4,0-2.1c0-0.7,0-1.4,0-2.1c0-4.2,0-8.5,0-12.7c0-0.5,0-1,0-1.4c0.6-0.3,1.1-1,1.7-1
		c7.3,0,14.6,0.1,21.9,0.2C129.7,109.4,129.9,109.7,130,110z"/>
	<path class="st1" d="M220.2,156.6c-13.2,0-26.5,0-39.7,0c-0.5-0.2-0.9-0.4-1.4-0.6c-0.1-1.6-0.2-3.3-0.2-4.9c0-12.3,0-24.6,0-37
		c0-1.6,0-3.2,0-5.2c14,0,27.6,0,41.2,0c0.5,0.1,1,0.2,1.6,0.2c2.8,1,5.7,1.7,8.4,2.9c7.7,3.4,12.5,9.2,13.5,17.5
		c1.1,9.9-2.5,17.9-11.4,22.8c-3.4,1.9-7.4,2.8-11.2,4.2C220.7,156.6,220.4,156.6,220.2,156.6z M202.6,150.3c0.2,0.7,0.4,1.3,0.6,2
		c1.2,0,2.4,0.2,3.5,0.1c5.1-0.6,9.8-2.3,9.9-8.8c0.1-6.4,0.5-12.9,0.6-19.3c0-1.5-0.6-3.2-1.2-4.6c-2.1-5.3-4.7-6.5-12.9-6
		c-0.2,0.4-0.4,0.9-0.6,1.3c0,0.7,0,1.4,0,2.1c0,0.5,0,0.9,0,1.4C202.6,129.1,202.6,139.7,202.6,150.3z"/>
	<path class="st20" d="M164.9,156.5c-7.3,0-14.5,0-22,0c0-15.9,0-31.6,0-47.4c7.9,0,15.7,0,23.9,0c0,15,0,29.8,0,44.6
		c0,0.3,0,0.6,0,1c-0.4,0.6-0.8,1.2-1.1,1.8C165.4,156.5,165.1,156.5,164.9,156.5z"/>
	<path class="st21" d="M178.8,114.2c0,12.3,0,24.6,0,37c-0.2-1.4-0.4-2.8-0.4-4.1c0-9.7,0-19.4,0-29
		C178.4,116.7,178.7,115.4,178.8,114.2z"/>
	<path class="st22" d="M106,153.2c0,0.7,0,1.4,0,2.1C106,154.6,106,153.9,106,153.2z"/>
	<path class="st23" d="M128.8,156.5c0.4-0.4,0.8-0.8,1.3-1.2C129.6,155.7,129.2,156.1,128.8,156.5z"/>
	<path class="st22" d="M106,124.1c0,0.7,0,1.4,0,2.1C106,125.5,106,124.8,106,124.1z"/>
	<path class="st22" d="M105.4,137c0.2,0.7,0.4,1.4,0.6,2C105.8,138.3,105.6,137.7,105.4,137z"/>
	<path class="st24" d="M179.1,156c0.5,0.2,0.9,0.4,1.4,0.6c0,0,0.1,0.3,0.1,0.3c-0.5,0-1-0.1-1.5-0.1
		C179.1,156.5,179.1,156.3,179.1,156z"/>
	<path class="st22" d="M106,109.9c0,0.5,0,1,0,1.4C106,110.9,106,110.4,106,109.9z"/>
	<path class="st25" d="M221.6,109.2c-0.5-0.1-1-0.2-1.6-0.2C220.6,109.1,221.1,109.1,221.6,109.2z"/>
	<path class="st17" d="M179.1,156.7c0.5,0,1,0.1,1.5,0.1C180.1,156.8,179.6,156.8,179.1,156.7z"/>
	<path class="st24" d="M220.2,156.6c0.2,0,0.5,0,0.7,0C220.7,156.6,220.4,156.6,220.2,156.6z"/>
	<path class="st23" d="M106.2,156c0.2,0.2,0.4,0.3,0.6,0.5C106.6,156.3,106.4,156.2,106.2,156z"/>
	<path class="st23" d="M89.1,156.5c0.3-0.2,0.5-0.3,0.8-0.5C89.6,156.2,89.3,156.4,89.1,156.5z"/>
	<path class="st23" d="M66.4,156c0.3,0.2,0.5,0.3,0.8,0.5C66.9,156.4,66.6,156.2,66.4,156z"/>
	<path class="st25" d="M166.8,154.7c0-0.3,0-0.6,0-1C166.8,154.1,166.8,154.4,166.8,154.7z"/>
	<path class="st18" d="M90.1,137c0-0.2,0-0.4,0-0.6c0.1,0.1,0.3,0.3,0.4,0.4c0,0-0.1,0.2-0.1,0.2L90.1,137z"/>
	<path class="st22" d="M105.9,128.4c-0.2,0.2-0.4,0.4-0.6,0.6C105.6,128.8,105.8,128.6,105.9,128.4z"/>
	<path class="st23" d="M130,110c-0.2-0.3-0.3-0.6-0.5-0.8C129.7,109.4,129.9,109.7,130,110z"/>
	<path class="st23" d="M164.9,156.5c0.3,0,0.5,0,0.8,0C165.4,156.5,165.1,156.5,164.9,156.5z"/>
	<path class="st3" d="M69.5,64.2c0-5.3,0-10.7,0-16.1c0-0.5,0.6-1.3,1.1-1.5c4.6-1.8,10.6,2.3,10.6,7.2c0,0.2,0,0.5,0,0.7
		C81.4,63.1,78.6,65.5,69.5,64.2z"/>
	<path class="st2" d="M43,57.8c1.4-4.3,2.6-7.9,3.8-11.4c0.3,0,0.5-0.1,0.8-0.1c1,3.8,2,7.6,3,11.6C47.8,57.8,45.6,57.8,43,57.8z"/>
	<path class="st2" d="M205.4,58.5c1.4-4.6,2.5-8.5,3.6-12.3c0.3,0,0.5,0.1,0.8,0.1c1.1,3.6,2.1,7.1,3.3,11.1
		C210.8,57.8,208.6,58.1,205.4,58.5z"/>
	<path class="st2" d="M128.2,46.6c1.1,3.3,2.2,6.5,3.1,9.8c0.1,0.4-1.1,1.6-1.8,1.8c-1.6,0.3-3.2,0.1-5.5,0.1
		c1.2-4.3,2.2-8.1,3.2-11.9C127.6,46.4,127.9,46.5,128.2,46.6z"/>
	<path class="st11" d="M202.6,117c0-0.7,0-1.4,0-2.1c0.2-0.4,0.4-0.9,0.6-1.3c8.2-0.5,10.8,0.7,12.9,6c0.6,1.5,1.2,3.1,1.2,4.6
		c-0.1,6.4-0.5,12.9-0.6,19.3c-0.1,6.6-4.9,8.3-9.9,8.8c-1.2,0.1-2.4-0.1-3.5-0.1c-0.2-0.7-0.4-1.3-0.6-2c0-10.6,0-21.3,0-31.9
		C202.6,118,202.6,117.5,202.6,117z"/>
	<path class="st17" d="M202.6,150.3c0.2,0.7,0.4,1.3,0.6,2C203,151.7,202.8,151,202.6,150.3z"/>
	<path class="st17" d="M202.6,117c0,0.5,0,0.9,0,1.4C202.6,118,202.6,117.5,202.6,117z"/>
	<path class="st17" d="M203.2,113.6c-0.2,0.4-0.4,0.9-0.6,1.3C202.8,114.5,203,114.1,203.2,113.6z"/>
</g>
</svg>
