<?xml version="1.0" encoding="utf-8"?>
<!-- Generator: Adobe Illustrator 27.7.0, SVG Export Plug-In . SVG Version: 6.00 Build 0)  -->
<svg version="1.1" id="layer" xmlns="http://www.w3.org/2000/svg" xmlns:xlink="http://www.w3.org/1999/xlink" x="0px" y="0px"
	 viewBox="0 0 300 120" style="enable-background:new 0 0 300 120;" xml:space="preserve">
<path d="M70.4,54l-6.2-6.2v17.5h6.2V54z M45.6,35.3h15.1l-6.2-6.2l0,0h-7.9c5.6-0.5,9.8-5.4,9.3-11c-0.4-5.3-4.9-9.4-10.3-9.4v20.4
	h0l-17-16.9c-1.9,1-3.7,2.1-5.3,3.5l16.1,16v35.1l12.4,12.4v-8.8l-6.2-6.2L45.6,35.3z"/>
<path d="M51.8,35.3l0,30h6.2l0-23.7L51.8,35.3z M73,47.7l-6.2-6.2H58l6.2,6.2H73z M33.2,61V34.3L18.9,20c-1.3,1.6-2.5,3.4-3.5,5.3
	L27,36.8v8.8l-14-14c-0.7,2.5-1,5.1-1.1,7.7L33.2,61z M12,48.2V57l39.8,39.7V88L12,48.2z M82.8,57.5h-6.2v7.8h-6.2
	c-0.2,5.6,4.3,10.3,9.9,10.5c5.6,0.2,10.3-4.3,10.5-9.9c0-0.2,0-0.4,0-0.5L82.8,57.5z M133.3,65.4l-4.7,8.8h-29l18.8-36.2h-16.7
	l4.7-8.9h29l-18.9,36.2L133.3,65.4z M150.1,47.3H165v8.9h-14.9v9.3H165v8.8h-25.8V29.2H165v8.9h-14.9V47.3z M185.7,29.2
	c5.7,0,9.1,0.6,11.5,2.2c3.1,1.9,5,5.7,5,10.1c0,3.2-1,5.8-3,7.8c-1.3,1.3-2.3,2-4.7,2.6c2.8,0.6,4,1.2,5.4,2.6c2,1.9,3,4.5,3,7.8
	c0,4.2-1.7,7.9-4.6,9.9c-2.2,1.5-4.9,2.1-9.5,2.1h-18.4V29.2L185.7,29.2z M181.3,47.9h2.7c5,0,7.1-1.6,7.1-5.3
	c0-3.6-2.1-5.2-7.2-5.2h-2.6V47.9z M181.3,66.4h4c4.6,0,6.5-1.6,6.5-5.2c0-2.2-0.8-3.7-2.4-4.6c-1.2-0.7-2.3-0.8-5.6-0.8h-2.5V66.4z
	 M218.1,74.3h-10.9V29.2h14.6c5.9,0,10.3,1.1,13.2,3.4c3.1,2.4,4.9,6.5,4.9,11.4c0,6.9-2.9,11.4-8.7,13.7l9.9,16.6H228l-9.9-17.4
	L218.1,74.3z M221.6,50.7c4.5,0,7.2-2.3,7.2-6.2c0-3.7-2.6-6.3-6.5-6.3h-4.2v12.5H221.6z M272.8,74.3h11.9l-14.8-45.1h-13.9
	l-14.9,45h11.5l2.8-8.9H270L272.8,74.3z M258.2,56.6l4.5-14.4l4.5,14.4H258.2z"/>
</svg>
